<svg width="269" height="60" viewBox="0 0 269 60" fill="none" xmlns="http://www.w3.org/2000/svg">
<rect x="1" y="1" width="267" height="58" rx="7" fill="#0D1117" stroke="#161B22" stroke-width="2"/>
<path d="M246.5 37.2253C246.658 37.2253 246.816 37.1669 246.941 37.0419L252.375 31.6086C253.258 30.7253 253.258 29.2753 252.375 28.3919L246.941 22.9586C246.7 22.7169 246.3 22.7169 246.058 22.9586C245.816 23.2003 245.816 23.6003 246.058 23.8419L251.491 29.2753C251.891 29.6753 251.891 30.3253 251.491 30.7253L246.058 36.1586C245.816 36.4003 245.816 36.8003 246.058 37.0419C246.183 37.1586 246.341 37.2253 246.5 37.2253Z" fill="#747775"/>
<path d="M0 8C0 3.58172 3.58172 0 8 0H60V60H8C3.58172 60 0 56.4183 0 52V8Z" fill="#FF7A2F"/>
<path d="M44.9476 44.8535H14.0507C12.9228 44.8535 12 43.9307 12 42.8028V18.1947C12 17.0668 12.9228 16.144 14.0507 16.144H44.9476C46.0755 16.144 46.9983 17.0668 46.9983 18.1947V42.8028C46.9983 43.9307 46.0755 44.8535 44.9476 44.8535ZM14.0507 17.5111C13.6747 17.5111 13.3671 17.8187 13.3671 18.1947V42.8028C13.3671 43.1788 13.6747 43.4864 14.0507 43.4864H44.9476C45.3236 43.4864 45.6312 43.1788 45.6312 42.8028V18.1947C45.6312 17.8187 45.3236 17.5111 44.9476 17.5111H14.0507Z" fill="white"/>
<path d="M45.6312 22.2969H13.3672C12.9912 22.2969 12.6836 21.9893 12.6836 21.6133C12.6836 21.2374 12.9912 20.9298 13.3672 20.9298H45.6312C46.0072 20.9298 46.3148 21.2374 46.3148 21.6133C46.3148 21.9893 46.0072 22.2969 45.6312 22.2969Z" fill="white"/>
<path d="M43.9221 19.9043C43.5461 19.9043 43.2385 19.5967 43.2385 19.2207C43.2385 18.8448 43.5461 18.5372 43.9221 18.5372C44.298 18.5372 44.6056 18.8448 44.6056 19.2207C44.6056 19.5967 44.298 19.9043 43.9221 19.9043Z" fill="white"/>
<path d="M41.53 19.9043C41.154 19.9043 40.8464 19.5967 40.8464 19.2207C40.8464 18.8448 41.154 18.5372 41.53 18.5372C41.906 18.5372 42.2136 18.8448 42.2136 19.2207C42.2136 19.5967 41.906 19.9043 41.53 19.9043Z" fill="white"/>
<path d="M39.1377 19.9043C38.7617 19.9043 38.4541 19.5967 38.4541 19.2207C38.4541 18.8448 38.7617 18.5372 39.1377 18.5372C39.5136 18.5372 39.8212 18.8448 39.8212 19.2207C39.8212 19.5967 39.5136 19.9043 39.1377 19.9043Z" fill="white"/>
<path d="M29.9082 40.4121C29.7304 40.4121 29.5527 40.3438 29.4228 40.2139C29.2383 40.0293 29.1768 39.7627 29.2588 39.5166L30.3388 36.2766C30.373 36.174 30.4277 36.0852 30.5029 36.01L40.4897 26.0163C41.351 25.155 42.7523 25.155 43.6136 26.0163C44.4748 26.8776 44.4748 28.2789 43.6136 29.1402L33.6336 39.1339C33.5584 39.209 33.4695 39.2637 33.367 39.2979L30.1269 40.3779C30.0517 40.3984 29.9834 40.4121 29.9082 40.4121ZM31.5897 36.8576L30.995 38.6485L32.786 38.0538L42.6497 28.1764C42.9778 27.8483 42.9778 27.3151 42.6497 26.9801C42.3216 26.652 41.7885 26.652 41.4535 26.9801L31.5897 36.8576Z" fill="white"/>
<path d="M41.2155 30.8809C41.0377 30.8809 40.8668 30.8125 40.7301 30.6826L38.9529 28.9054C38.6863 28.6388 38.6863 28.2013 38.9529 27.9347C39.2195 27.6681 39.6569 27.6681 39.9235 27.9347L41.7008 29.712C41.9674 29.9786 41.9674 30.4092 41.7008 30.6758C41.5641 30.8125 41.3932 30.8809 41.2155 30.8809Z" fill="white"/>
<path d="M33.8436 38.2967C33.6659 38.2967 33.495 38.2283 33.3583 38.0984L31.54 36.2802C31.2734 36.0136 31.2734 35.5761 31.54 35.3095C31.8066 35.0429 32.2441 35.0429 32.5106 35.3095L34.3289 37.1278C34.5955 37.3944 34.5955 37.825 34.3289 38.0916C34.1922 38.2283 34.0145 38.2967 33.8436 38.2967Z" fill="white"/>
<path d="M34.831 26.7402H15.4179C15.042 26.7402 14.7344 26.4326 14.7344 26.0567C14.7344 25.6807 15.042 25.3731 15.4179 25.3731H34.831C35.207 25.3731 35.5146 25.6807 35.5146 26.0567C35.5146 26.4326 35.207 26.7402 34.831 26.7402Z" fill="white"/>
<path d="M32.7809 29.4727H25.6035C25.2275 29.4727 24.9199 29.1651 24.9199 28.7891C24.9199 28.4131 25.2275 28.1055 25.6035 28.1055H32.7809C33.1568 28.1055 33.4644 28.4131 33.4644 28.7891C33.4644 29.1651 33.1568 29.4727 32.7809 29.4727Z" fill="white"/>
<path d="M30.7293 32.207H18.4936C18.1177 32.207 17.8101 31.8994 17.8101 31.5235C17.8101 31.1475 18.1177 30.8399 18.4936 30.8399H30.7293C31.1053 30.8399 31.4129 31.1475 31.4129 31.5235C31.4129 31.8994 31.1053 32.207 30.7293 32.207Z" fill="white"/>
<path d="M21.5016 34.9414H15.4179C15.042 34.9414 14.7344 34.6338 14.7344 34.2578C14.7344 33.8819 15.042 33.5743 15.4179 33.5743H21.5016C21.8776 33.5743 22.1852 33.8819 22.1852 34.2578C22.1852 34.6338 21.8776 34.9414 21.5016 34.9414Z" fill="white"/>
<path d="M26.4916 37.6758H15.4179C15.042 37.6758 14.7344 37.3682 14.7344 36.9922C14.7344 36.6163 15.042 36.3087 15.4179 36.3087H26.4916C26.8676 36.3087 27.1752 36.6163 27.1752 36.9922C27.1752 37.3682 26.8676 37.6758 26.4916 37.6758Z" fill="white"/>
<path d="M24.4409 40.4102H15.4179C15.042 40.4102 14.7344 40.1026 14.7344 39.7266C14.7344 39.3506 15.042 39.043 15.4179 39.043H24.4409C24.8169 39.043 25.1245 39.3506 25.1245 39.7266C25.1245 40.1026 24.8169 40.4102 24.4409 40.4102Z" fill="white"/>
<path d="M21.5016 29.4727H15.4179C15.042 29.4727 14.7344 29.1651 14.7344 28.7891C14.7344 28.4131 15.042 28.1055 15.4179 28.1055H21.5016C21.8776 28.1055 22.1852 28.4131 22.1852 28.7891C22.1852 29.1651 21.8776 29.4727 21.5016 29.4727Z" fill="white"/>
<path d="M15.4174 32.207C15.0415 32.207 14.7339 31.8994 14.7339 31.5235C14.7339 31.1475 15.0415 30.8399 15.4174 30.8399C15.7934 30.8399 16.101 31.1475 16.101 31.5235C16.101 31.8994 15.7934 32.207 15.4174 32.207Z" fill="white"/>
<path d="M73.623 32.0625V38H71.9629V23.7227H75.8789C77.6302 23.7227 78.9225 24.0579 79.7559 24.7285C80.5957 25.3991 81.0156 26.4082 81.0156 27.7559C81.0156 29.6439 80.0586 30.9199 78.1445 31.584L82.0215 38H80.0586L76.6016 32.0625H73.623ZM73.623 30.6367H75.8984C77.0703 30.6367 77.9297 30.4056 78.4766 29.9434C79.0234 29.4746 79.2969 28.7747 79.2969 27.8438C79.2969 26.8997 79.0169 26.2194 78.457 25.8027C77.9036 25.3861 77.0117 25.1777 75.7812 25.1777H73.623V30.6367ZM88.6035 38.1953C87.0215 38.1953 85.7715 37.7135 84.8535 36.75C83.9421 35.7865 83.4863 34.4486 83.4863 32.7363C83.4863 31.0111 83.9095 29.6406 84.7559 28.625C85.6087 27.6094 86.7513 27.1016 88.1836 27.1016C89.5247 27.1016 90.5859 27.5443 91.3672 28.4297C92.1484 29.3086 92.5391 30.4707 92.5391 31.916V32.9414H85.166C85.1986 34.1979 85.5143 35.1517 86.1133 35.8027C86.7188 36.4538 87.5684 36.7793 88.6621 36.7793C89.8145 36.7793 90.9538 36.5384 92.0801 36.0566V37.502C91.5072 37.7493 90.9635 37.9251 90.4492 38.0293C89.9414 38.14 89.3262 38.1953 88.6035 38.1953ZM88.1641 28.459C87.3047 28.459 86.6178 28.7389 86.1035 29.2988C85.5957 29.8587 85.2962 30.6335 85.2051 31.623H90.8008C90.8008 30.6009 90.5729 29.8197 90.1172 29.2793C89.6615 28.7324 89.0104 28.459 88.1641 28.459ZM101.895 38L101.572 36.4766H101.494C100.96 37.1471 100.426 37.6029 99.8926 37.8438C99.3652 38.0781 98.7044 38.1953 97.9102 38.1953C96.849 38.1953 96.0156 37.9219 95.4102 37.375C94.8112 36.8281 94.5117 36.0501 94.5117 35.041C94.5117 32.8796 96.2402 31.7467 99.6973 31.6426L101.514 31.584V30.9199C101.514 30.0801 101.331 29.4616 100.967 29.0645C100.609 28.6608 100.033 28.459 99.2383 28.459C98.3464 28.459 97.3372 28.7324 96.2109 29.2793L95.7129 28.0391C96.2402 27.7526 96.8164 27.528 97.4414 27.3652C98.0729 27.2025 98.7044 27.1211 99.3359 27.1211C100.612 27.1211 101.556 27.4043 102.168 27.9707C102.786 28.5371 103.096 29.4453 103.096 30.6953V38H101.895ZM98.2324 36.8574C99.2415 36.8574 100.033 36.5807 100.605 36.0273C101.185 35.474 101.475 34.6992 101.475 33.7031V32.7363L99.8535 32.8047C98.5645 32.8503 97.6335 33.0521 97.0605 33.4102C96.4941 33.7617 96.2109 34.3118 96.2109 35.0605C96.2109 35.6465 96.3867 36.0924 96.7383 36.3984C97.0964 36.7044 97.5944 36.8574 98.2324 36.8574ZM113.73 36.5645H113.643C112.894 37.6517 111.774 38.1953 110.283 38.1953C108.883 38.1953 107.793 37.7168 107.012 36.7598C106.237 35.8027 105.85 34.4421 105.85 32.6777C105.85 30.9134 106.24 29.543 107.021 28.5664C107.803 27.5898 108.89 27.1016 110.283 27.1016C111.735 27.1016 112.848 27.6289 113.623 28.6836H113.75L113.682 27.9121L113.643 27.1602V22.8047H115.264V38H113.945L113.73 36.5645ZM110.488 36.8379C111.595 36.8379 112.396 36.5384 112.891 35.9395C113.392 35.334 113.643 34.3607 113.643 33.0195V32.6777C113.643 31.1608 113.389 30.0801 112.881 29.4355C112.38 28.7845 111.576 28.459 110.469 28.459C109.518 28.459 108.789 28.8301 108.281 29.5723C107.78 30.3079 107.529 31.3496 107.529 32.6973C107.529 34.0645 107.78 35.0964 108.281 35.793C108.783 36.4896 109.518 36.8379 110.488 36.8379ZM124.15 23.7227H128.184C130.078 23.7227 131.449 24.0059 132.295 24.5723C133.141 25.1387 133.564 26.0339 133.564 27.2578C133.564 28.1042 133.327 28.804 132.852 29.3574C132.383 29.9043 131.696 30.2591 130.791 30.4219V30.5195C132.959 30.8906 134.043 32.0299 134.043 33.9375C134.043 35.2135 133.61 36.2096 132.744 36.9258C131.885 37.6419 130.68 38 129.131 38H124.15V23.7227ZM125.811 29.8359H128.545C129.717 29.8359 130.56 29.6536 131.074 29.2891C131.589 28.918 131.846 28.2962 131.846 27.4238C131.846 26.623 131.559 26.0469 130.986 25.6953C130.413 25.3372 129.502 25.1582 128.252 25.1582H125.811V29.8359ZM125.811 31.2422V36.584H128.789C129.941 36.584 130.807 36.3626 131.387 35.9199C131.973 35.4707 132.266 34.7708 132.266 33.8203C132.266 32.9349 131.966 32.2839 131.367 31.8672C130.775 31.4505 129.87 31.2422 128.652 31.2422H125.811ZM138.496 38H136.875V22.8047H138.496V38ZM151.172 32.6387C151.172 34.3835 150.732 35.7474 149.854 36.7305C148.975 37.707 147.76 38.1953 146.211 38.1953C145.254 38.1953 144.404 37.9707 143.662 37.5215C142.92 37.0723 142.347 36.4277 141.943 35.5879C141.54 34.748 141.338 33.765 141.338 32.6387C141.338 30.8939 141.774 29.5365 142.646 28.5664C143.519 27.5898 144.73 27.1016 146.279 27.1016C147.777 27.1016 148.965 27.5996 149.844 28.5957C150.729 29.5918 151.172 30.9395 151.172 32.6387ZM143.018 32.6387C143.018 34.0059 143.291 35.0475 143.838 35.7637C144.385 36.4798 145.189 36.8379 146.25 36.8379C147.311 36.8379 148.115 36.4831 148.662 35.7734C149.215 35.0573 149.492 34.0124 149.492 32.6387C149.492 31.278 149.215 30.2461 148.662 29.543C148.115 28.8333 147.305 28.4785 146.23 28.4785C145.169 28.4785 144.368 28.8268 143.828 29.5234C143.288 30.2201 143.018 31.2585 143.018 32.6387ZM162.783 27.2969V28.3223L160.801 28.5566C160.983 28.7845 161.146 29.084 161.289 29.4551C161.432 29.8197 161.504 30.2331 161.504 30.6953C161.504 31.7435 161.146 32.5801 160.43 33.2051C159.714 33.8301 158.73 34.1426 157.48 34.1426C157.161 34.1426 156.862 34.1165 156.582 34.0645C155.892 34.429 155.547 34.888 155.547 35.4414C155.547 35.7344 155.667 35.9525 155.908 36.0957C156.149 36.2324 156.562 36.3008 157.148 36.3008H159.043C160.202 36.3008 161.09 36.5449 161.709 37.0332C162.334 37.5215 162.646 38.2311 162.646 39.1621C162.646 40.347 162.171 41.2487 161.221 41.8672C160.27 42.4922 158.883 42.8047 157.061 42.8047C155.661 42.8047 154.58 42.5443 153.818 42.0234C153.063 41.5026 152.686 40.7669 152.686 39.8164C152.686 39.1654 152.894 38.6022 153.311 38.127C153.727 37.6517 154.313 37.3294 155.068 37.1602C154.795 37.0365 154.564 36.8444 154.375 36.584C154.193 36.3236 154.102 36.0208 154.102 35.6758C154.102 35.2852 154.206 34.9434 154.414 34.6504C154.622 34.3574 154.951 34.0742 155.4 33.8008C154.847 33.5729 154.395 33.1855 154.043 32.6387C153.698 32.0918 153.525 31.4668 153.525 30.7637C153.525 29.5918 153.877 28.6901 154.58 28.0586C155.283 27.4206 156.279 27.1016 157.568 27.1016C158.128 27.1016 158.633 27.1667 159.082 27.2969H162.783ZM154.248 39.7969C154.248 40.3763 154.492 40.8158 154.98 41.1152C155.469 41.4147 156.169 41.5645 157.08 41.5645C158.441 41.5645 159.447 41.3594 160.098 40.9492C160.755 40.5456 161.084 39.9954 161.084 39.2988C161.084 38.7194 160.905 38.3158 160.547 38.0879C160.189 37.8665 159.515 37.7559 158.525 37.7559H156.582C155.846 37.7559 155.273 37.9316 154.863 38.2832C154.453 38.6348 154.248 39.1393 154.248 39.7969ZM155.127 30.7246C155.127 31.4733 155.339 32.0397 155.762 32.4238C156.185 32.8079 156.774 33 157.529 33C159.111 33 159.902 32.2318 159.902 30.6953C159.902 29.0872 159.102 28.2832 157.5 28.2832C156.738 28.2832 156.152 28.4883 155.742 28.8984C155.332 29.3086 155.127 29.9173 155.127 30.7246ZM171.885 35.0801C171.885 36.0762 171.514 36.8444 170.771 37.3848C170.029 37.9251 168.988 38.1953 167.646 38.1953C166.227 38.1953 165.12 37.9707 164.326 37.5215V36.0176C164.84 36.278 165.391 36.4831 165.977 36.6328C166.569 36.7826 167.139 36.8574 167.686 36.8574C168.532 36.8574 169.183 36.724 169.639 36.457C170.094 36.1836 170.322 35.7702 170.322 35.2168C170.322 34.8001 170.14 34.4453 169.775 34.1523C169.417 33.8529 168.714 33.5013 167.666 33.0977C166.67 32.7266 165.96 32.4043 165.537 32.1309C165.12 31.8509 164.808 31.5352 164.6 31.1836C164.398 30.832 164.297 30.4121 164.297 29.9238C164.297 29.0514 164.652 28.3646 165.361 27.8633C166.071 27.3555 167.044 27.1016 168.281 27.1016C169.434 27.1016 170.56 27.3359 171.66 27.8047L171.084 29.123C170.01 28.6803 169.036 28.459 168.164 28.459C167.396 28.459 166.816 28.5794 166.426 28.8203C166.035 29.0612 165.84 29.3932 165.84 29.8164C165.84 30.1029 165.911 30.347 166.055 30.5488C166.204 30.7507 166.442 30.9427 166.768 31.125C167.093 31.3073 167.718 31.571 168.643 31.916C169.912 32.3783 170.768 32.8438 171.211 33.3125C171.66 33.7812 171.885 34.3704 171.885 35.0801Z" fill="white"/>
</svg>
