<svg width="259" height="33" viewBox="0 0 259 33" fill="none" xmlns="http://www.w3.org/2000/svg">
<rect width="259" height="33" rx="6" fill="#353535"/>
<path d="M0 6C0 2.68629 2.68629 0 6 0H34V33H6C2.68629 33 0 30.3137 0 27V6Z" fill="#1A76B1"/>
<g clip-path="url(#clip0_6_1299)">
<path d="M27 10.7988C26.2562 11.125 25.4637 11.3412 24.6375 11.4462C25.4875 10.9387 26.1363 10.1412 26.4413 9.18C25.6488 9.6525 24.7737 9.98625 23.8412 10.1725C23.0887 9.37125 22.0162 8.875 20.8462 8.875C18.5762 8.875 16.7487 10.7175 16.7487 12.9763C16.7487 13.3013 16.7762 13.6137 16.8438 13.9112C13.435 13.745 10.4188 12.1113 8.3925 9.6225C8.03875 10.2363 7.83125 10.9388 7.83125 11.695C7.83125 13.115 8.5625 14.3737 9.6525 15.1025C8.99375 15.09 8.3475 14.8988 7.8 14.5975C7.8 14.61 7.8 14.6262 7.8 14.6425C7.8 16.635 9.22125 18.29 11.085 18.6712C10.7512 18.7625 10.3875 18.8062 10.01 18.8062C9.7475 18.8062 9.4825 18.7912 9.23375 18.7362C9.765 20.36 11.2725 21.5537 13.065 21.5925C11.67 22.6837 9.89875 23.3412 7.98125 23.3412C7.645 23.3412 7.3225 23.3262 7 23.285C8.81625 24.4562 10.9688 25.125 13.29 25.125C20.835 25.125 24.96 18.875 24.96 13.4575C24.96 13.2762 24.9537 13.1013 24.945 12.9275C25.7587 12.35 26.4425 11.6288 27 10.7988Z" fill="white"/>
</g>
<path d="M45.7295 22H44.2188V12.7197H49.4619V14.002H45.7295V16.8965H49.2207V18.1724H45.7295V22ZM59.6496 17.3472C59.6496 18.0623 59.5587 18.714 59.3767 19.3022C59.199 19.8862 58.9302 20.3898 58.5705 20.813C58.2108 21.2319 57.7602 21.5557 57.2185 21.7842C56.6768 22.0127 56.0421 22.127 55.3142 22.127C54.5736 22.127 53.9304 22.0127 53.3845 21.7842C52.8428 21.5557 52.3922 21.2298 52.0325 20.8066C51.677 20.3835 51.4104 19.8778 51.2327 19.2896C51.0549 18.7013 50.9661 18.0496 50.9661 17.3345C50.9661 16.3781 51.1226 15.5444 51.4358 14.8335C51.7532 14.1183 52.2335 13.564 52.8767 13.1704C53.5242 12.7726 54.3409 12.5737 55.3269 12.5737C56.2917 12.5737 57.0937 12.7705 57.7327 13.1641C58.3717 13.5576 58.8498 14.112 59.1672 14.8271C59.4888 15.5381 59.6496 16.3781 59.6496 17.3472ZM52.5657 17.3472C52.5657 18.0623 52.663 18.6823 52.8577 19.207C53.0523 19.7275 53.3507 20.1296 53.7527 20.4131C54.1589 20.6924 54.6794 20.832 55.3142 20.832C55.9532 20.832 56.4737 20.6924 56.8757 20.4131C57.2777 20.1296 57.574 19.7275 57.7644 19.207C57.9548 18.6823 58.05 18.0623 58.05 17.3472C58.05 16.2596 57.8321 15.409 57.3962 14.7954C56.9646 14.1776 56.2748 13.8687 55.3269 13.8687C54.6921 13.8687 54.1695 14.0083 53.759 14.2876C53.3528 14.5669 53.0523 14.9668 52.8577 15.4873C52.663 16.0036 52.5657 16.6235 52.5657 17.3472ZM61.9028 22V12.7197H63.4263V20.7051H67.3681V22H61.9028ZM69.2341 22V12.7197H70.7575V20.7051H74.6994V22H69.2341ZM84.8046 17.3472C84.8046 18.0623 84.7137 18.714 84.5317 19.3022C84.354 19.8862 84.0852 20.3898 83.7255 20.813C83.3658 21.2319 82.9152 21.5557 82.3735 21.7842C81.8318 22.0127 81.1971 22.127 80.4692 22.127C79.7286 22.127 79.0854 22.0127 78.5395 21.7842C77.9978 21.5557 77.5472 21.2298 77.1875 20.8066C76.832 20.3835 76.5654 19.8778 76.3877 19.2896C76.2099 18.7013 76.1211 18.0496 76.1211 17.3345C76.1211 16.3781 76.2776 15.5444 76.5908 14.8335C76.9082 14.1183 77.3885 13.564 78.0317 13.1704C78.6792 12.7726 79.4959 12.5737 80.4819 12.5737C81.4467 12.5737 82.2487 12.7705 82.8877 13.1641C83.5267 13.5576 84.0048 14.112 84.3222 14.8271C84.6438 15.5381 84.8046 16.3781 84.8046 17.3472ZM77.7207 17.3472C77.7207 18.0623 77.818 18.6823 78.0127 19.207C78.2073 19.7275 78.5057 20.1296 78.9077 20.4131C79.3139 20.6924 79.8344 20.832 80.4692 20.832C81.1082 20.832 81.6287 20.6924 82.0307 20.4131C82.4327 20.1296 82.729 19.7275 82.9194 19.207C83.1098 18.6823 83.205 18.0623 83.205 17.3472C83.205 16.2596 82.9871 15.409 82.5512 14.7954C82.1196 14.1776 81.4298 13.8687 80.4819 13.8687C79.8471 13.8687 79.3245 14.0083 78.914 14.2876C78.5078 14.5669 78.2073 14.9668 78.0127 15.4873C77.818 16.0036 77.7207 16.6235 77.7207 17.3472ZM98.0329 12.7197L95.6081 22H93.945L92.3962 16.4395C92.3581 16.304 92.3158 16.1432 92.2692 15.957C92.2227 15.7708 92.1761 15.5804 92.1296 15.3857C92.0873 15.1911 92.0492 15.0133 92.0153 14.8525C91.9857 14.6875 91.9646 14.5605 91.9519 14.4717C91.9434 14.5605 91.9243 14.6854 91.8947 14.8462C91.8651 15.007 91.8291 15.1847 91.7868 15.3794C91.7487 15.5698 91.7064 15.7603 91.6599 15.9507C91.6133 16.1369 91.571 16.3019 91.5329 16.4458L90.0095 22H88.3527L85.9343 12.7197H87.4641L88.8034 18.1597C88.8457 18.3332 88.8881 18.5215 88.9304 18.7246C88.9769 18.9235 89.0192 19.1245 89.0573 19.3276C89.0996 19.5308 89.1377 19.7297 89.1716 19.9243C89.2054 20.1147 89.2329 20.2882 89.2541 20.4448C89.2753 20.284 89.3028 20.1063 89.3366 19.9116C89.3705 19.7127 89.4064 19.5117 89.4445 19.3086C89.4868 19.1012 89.5292 18.9023 89.5715 18.7119C89.618 18.5215 89.6646 18.3501 89.7111 18.1978L91.2219 12.7197H92.7072L94.2497 18.2168C94.2963 18.3734 94.3407 18.549 94.383 18.7437C94.4296 18.9383 94.474 19.1372 94.5163 19.3403C94.5586 19.5435 94.5967 19.7402 94.6306 19.9307C94.6644 20.1211 94.6919 20.2925 94.7131 20.4448C94.7427 20.2375 94.7808 20.0005 94.8273 19.7339C94.8739 19.4673 94.9268 19.1965 94.986 18.9214C95.0453 18.6463 95.1045 18.3924 95.1638 18.1597L96.4968 12.7197H98.0329ZM112.987 17.3535C112.987 17.7555 112.941 18.1512 112.848 18.5405C112.755 18.9256 112.613 19.2747 112.423 19.5879C112.232 19.8968 111.993 20.1444 111.705 20.3306C111.422 20.5168 111.085 20.6099 110.696 20.6099C110.341 20.6099 110.044 20.5146 109.807 20.3242C109.57 20.1338 109.416 19.8989 109.344 19.6196H109.261C109.092 19.8947 108.857 20.1296 108.557 20.3242C108.261 20.5146 107.897 20.6099 107.465 20.6099C106.746 20.6099 106.191 20.3856 105.802 19.937C105.417 19.4842 105.224 18.8875 105.224 18.147C105.224 17.5715 105.343 17.0636 105.58 16.6235C105.817 16.1792 106.153 15.8301 106.589 15.5762C107.029 15.3223 107.545 15.1953 108.138 15.1953C108.531 15.1953 108.925 15.2313 109.319 15.3032C109.716 15.3709 110.029 15.445 110.258 15.5254L110.131 18.1343C110.123 18.257 110.116 18.3628 110.112 18.4517C110.112 18.5363 110.112 18.5955 110.112 18.6294C110.112 19.0399 110.178 19.3149 110.309 19.4546C110.44 19.59 110.594 19.6577 110.772 19.6577C111.009 19.6577 111.208 19.554 111.369 19.3467C111.534 19.1351 111.659 18.8558 111.743 18.5088C111.828 18.1576 111.87 17.7703 111.87 17.3472C111.87 16.5812 111.714 15.9274 111.401 15.3857C111.092 14.8441 110.666 14.4315 110.125 14.1479C109.583 13.8644 108.965 13.7227 108.271 13.7227C107.56 13.7227 106.93 13.8348 106.38 14.0591C105.834 14.2834 105.372 14.5986 104.996 15.0049C104.623 15.4111 104.342 15.8936 104.152 16.4521C103.961 17.0065 103.866 17.618 103.866 18.2866C103.866 19.1076 104.012 19.8058 104.304 20.3813C104.596 20.9526 105.025 21.3864 105.592 21.6826C106.164 21.9788 106.86 22.127 107.681 22.127C108.193 22.127 108.703 22.0719 109.211 21.9619C109.723 21.8477 110.186 21.7122 110.601 21.5557V22.5776C110.207 22.7427 109.767 22.876 109.28 22.9775C108.794 23.0791 108.269 23.1299 107.706 23.1299C106.661 23.1299 105.766 22.9395 105.021 22.5586C104.281 22.1777 103.711 21.6276 103.314 20.9082C102.92 20.1888 102.723 19.3276 102.723 18.3247C102.723 17.5207 102.85 16.7801 103.104 16.103C103.362 15.4217 103.733 14.8293 104.215 14.3257C104.697 13.8179 105.279 13.4243 105.961 13.145C106.646 12.8657 107.414 12.7261 108.265 12.7261C109.183 12.7261 109.998 12.9144 110.709 13.291C111.42 13.6634 111.976 14.1945 112.378 14.8843C112.784 15.5741 112.987 16.3971 112.987 17.3535ZM106.43 18.1724C106.43 18.6886 106.536 19.0653 106.748 19.3022C106.959 19.5392 107.247 19.6577 107.611 19.6577C108.077 19.6577 108.411 19.4863 108.614 19.1436C108.817 18.8008 108.936 18.3501 108.969 17.7915L109.046 16.2617C108.936 16.2321 108.806 16.2088 108.658 16.1919C108.51 16.1707 108.352 16.1602 108.182 16.1602C107.759 16.1602 107.418 16.2575 107.16 16.4521C106.906 16.6426 106.72 16.8923 106.602 17.2012C106.487 17.5059 106.43 17.8296 106.43 18.1724ZM122.813 22L120.141 14.2495H120.084C120.096 14.423 120.111 14.66 120.128 14.9604C120.145 15.2609 120.16 15.5825 120.173 15.9253C120.185 16.2681 120.192 16.596 120.192 16.9092V22H118.808V12.7197H120.947L123.518 20.1274H123.556L126.215 12.7197H128.348V22H126.895V16.833C126.895 16.5495 126.899 16.2427 126.907 15.9126C126.92 15.5825 126.933 15.2694 126.945 14.9731C126.962 14.6769 126.975 14.4399 126.984 14.2622H126.933L124.159 22H122.813ZM139.291 17.3472C139.291 18.0623 139.2 18.714 139.018 19.3022C138.841 19.8862 138.572 20.3898 138.212 20.813C137.853 21.2319 137.402 21.5557 136.86 21.7842C136.319 22.0127 135.684 22.127 134.956 22.127C134.215 22.127 133.572 22.0127 133.026 21.7842C132.485 21.5557 132.034 21.2298 131.674 20.8066C131.319 20.3835 131.052 19.8778 130.874 19.2896C130.697 18.7013 130.608 18.0496 130.608 17.3345C130.608 16.3781 130.764 15.5444 131.078 14.8335C131.395 14.1183 131.875 13.564 132.518 13.1704C133.166 12.7726 133.983 12.5737 134.969 12.5737C135.933 12.5737 136.735 12.7705 137.374 13.1641C138.013 13.5576 138.492 14.112 138.809 14.8271C139.131 15.5381 139.291 16.3781 139.291 17.3472ZM132.207 17.3472C132.207 18.0623 132.305 18.6823 132.499 19.207C132.694 19.7275 132.992 20.1296 133.394 20.4131C133.801 20.6924 134.321 20.832 134.956 20.832C135.595 20.832 136.115 20.6924 136.517 20.4131C136.919 20.1296 137.216 19.7275 137.406 19.207C137.597 18.6823 137.692 18.0623 137.692 17.3472C137.692 16.2596 137.474 15.409 137.038 14.7954C136.606 14.1776 135.917 13.8687 134.969 13.8687C134.334 13.8687 133.811 14.0083 133.401 14.2876C132.995 14.5669 132.694 14.9668 132.499 15.4873C132.305 16.0036 132.207 16.6235 132.207 17.3472ZM149.784 17.3472C149.784 18.0623 149.693 18.714 149.511 19.3022C149.333 19.8862 149.064 20.3898 148.705 20.813C148.345 21.2319 147.894 21.5557 147.353 21.7842C146.811 22.0127 146.176 22.127 145.448 22.127C144.708 22.127 144.065 22.0127 143.519 21.7842C142.977 21.5557 142.526 21.2298 142.167 20.8066C141.811 20.3835 141.545 19.8778 141.367 19.2896C141.189 18.7013 141.1 18.0496 141.1 17.3345C141.1 16.3781 141.257 15.5444 141.57 14.8335C141.887 14.1183 142.368 13.564 143.011 13.1704C143.658 12.7726 144.475 12.5737 145.461 12.5737C146.426 12.5737 147.228 12.7705 147.867 13.1641C148.506 13.5576 148.984 14.112 149.301 14.8271C149.623 15.5381 149.784 16.3781 149.784 17.3472ZM142.7 17.3472C142.7 18.0623 142.797 18.6823 142.992 19.207C143.186 19.7275 143.485 20.1296 143.887 20.4131C144.293 20.6924 144.814 20.832 145.448 20.832C146.087 20.832 146.608 20.6924 147.01 20.4131C147.412 20.1296 147.708 19.7275 147.899 19.207C148.089 18.6823 148.184 18.0623 148.184 17.3472C148.184 16.2596 147.966 15.409 147.53 14.7954C147.099 14.1776 146.409 13.8687 145.461 13.8687C144.826 13.8687 144.304 14.0083 143.893 14.2876C143.487 14.5669 143.186 14.9668 142.992 15.4873C142.797 16.0036 142.7 16.6235 142.7 17.3472ZM159.781 22H157.909L153.364 14.5923H153.307C153.323 14.842 153.338 15.1064 153.351 15.3857C153.368 15.665 153.381 15.9528 153.389 16.249C153.402 16.5452 153.412 16.8457 153.421 17.1504V22H152.037V12.7197H153.897L158.435 20.0767H158.48C158.471 19.8608 158.461 19.6133 158.448 19.334C158.435 19.0547 158.423 18.7669 158.41 18.4707C158.402 18.1702 158.395 17.8804 158.391 17.6011V12.7197H159.781V22ZM165.697 22H164.167V14.0146H161.45V12.7197H168.407V14.0146H165.697V22ZM175.345 22H170.089V12.7197H175.345V14.002H171.613V16.522H175.11V17.7979H171.613V20.7114H175.345V22ZM181.566 13.8813C181.121 13.8813 180.723 13.9618 180.372 14.1226C180.025 14.2834 179.731 14.5161 179.49 14.8208C179.249 15.1213 179.065 15.4873 178.938 15.9189C178.811 16.3464 178.747 16.8288 178.747 17.3662C178.747 18.0856 178.849 18.7056 179.052 19.2261C179.255 19.7424 179.564 20.1401 179.979 20.4194C180.393 20.6945 180.918 20.832 181.553 20.832C181.946 20.832 182.329 20.7939 182.702 20.7178C183.074 20.6416 183.459 20.5379 183.857 20.4067V21.7017C183.48 21.8498 183.1 21.9577 182.714 22.0254C182.329 22.0931 181.885 22.127 181.381 22.127C180.434 22.127 179.646 21.9302 179.02 21.5366C178.398 21.1431 177.933 20.5887 177.624 19.8735C177.319 19.1584 177.167 18.3205 177.167 17.3599C177.167 16.6574 177.264 16.0142 177.459 15.4302C177.653 14.8462 177.937 14.3426 178.309 13.9194C178.682 13.492 179.141 13.1641 179.687 12.9355C180.237 12.7028 180.865 12.5864 181.572 12.5864C182.037 12.5864 182.494 12.6393 182.943 12.7451C183.396 12.8467 183.815 12.9927 184.2 13.1831L183.667 14.4399C183.345 14.2876 183.009 14.1564 182.657 14.0464C182.306 13.9364 181.942 13.8813 181.566 13.8813ZM193.429 22H191.912V17.8105H187.634V22H186.11V12.7197H187.634V16.5156H191.912V12.7197H193.429V22ZM203.89 22H202.017L197.472 14.5923H197.415C197.432 14.842 197.447 15.1064 197.46 15.3857C197.476 15.665 197.489 15.9528 197.498 16.249C197.51 16.5452 197.521 16.8457 197.529 17.1504V22H196.146V12.7197H198.005L202.544 20.0767H202.588C202.58 19.8608 202.569 19.6133 202.557 19.334C202.544 19.0547 202.531 18.7669 202.519 18.4707C202.51 18.1702 202.504 17.8804 202.5 17.6011V12.7197H203.89V22ZM214.826 17.3472C214.826 18.0623 214.735 18.714 214.554 19.3022C214.376 19.8862 214.107 20.3898 213.747 20.813C213.388 21.2319 212.937 21.5557 212.395 21.7842C211.854 22.0127 211.219 22.127 210.491 22.127C209.75 22.127 209.107 22.0127 208.561 21.7842C208.02 21.5557 207.569 21.2298 207.209 20.8066C206.854 20.3835 206.587 19.8778 206.409 19.2896C206.232 18.7013 206.143 18.0496 206.143 17.3345C206.143 16.3781 206.299 15.5444 206.613 14.8335C206.93 14.1183 207.41 13.564 208.054 13.1704C208.701 12.7726 209.518 12.5737 210.504 12.5737C211.469 12.5737 212.27 12.7705 212.909 13.1641C213.548 13.5576 214.027 14.112 214.344 14.8271C214.666 15.5381 214.826 16.3781 214.826 17.3472ZM207.742 17.3472C207.742 18.0623 207.84 18.6823 208.034 19.207C208.229 19.7275 208.527 20.1296 208.93 20.4131C209.336 20.6924 209.856 20.832 210.491 20.832C211.13 20.832 211.651 20.6924 212.053 20.4131C212.455 20.1296 212.751 19.7275 212.941 19.207C213.132 18.6823 213.227 18.0623 213.227 17.3472C213.227 16.2596 213.009 15.409 212.573 14.7954C212.141 14.1776 211.452 13.8687 210.504 13.8687C209.869 13.8687 209.346 14.0083 208.936 14.2876C208.53 14.5669 208.229 14.9668 208.034 15.4873C207.84 16.0036 207.742 16.6235 207.742 17.3472ZM217.08 22V12.7197H218.603V20.7051H222.545V22H217.08ZM230.162 22L229.254 19.4229H225.706L224.798 22H223.192L226.645 12.6816H228.334L231.781 22H230.162ZM228.861 18.1152L227.978 15.5762C227.944 15.4661 227.896 15.3117 227.832 15.1128C227.769 14.9097 227.705 14.7044 227.642 14.4971C227.578 14.2855 227.526 14.1077 227.483 13.9639C227.441 14.1374 227.388 14.332 227.325 14.5479C227.265 14.7594 227.206 14.9583 227.147 15.1445C227.092 15.3307 227.049 15.4746 227.02 15.5762L226.131 18.1152H228.861ZM233.266 12.7197H236.027C237.224 12.7197 238.128 12.8932 238.737 13.2402C239.347 13.5872 239.651 14.186 239.651 15.0366C239.651 15.3921 239.588 15.7137 239.461 16.0015C239.338 16.285 239.158 16.5199 238.921 16.7061C238.684 16.888 238.392 17.0107 238.045 17.0742V17.1377C238.405 17.2012 238.725 17.3133 239.004 17.4741C239.287 17.6349 239.51 17.8656 239.67 18.166C239.835 18.4665 239.918 18.8558 239.918 19.334C239.918 19.901 239.783 20.3835 239.512 20.7812C239.245 21.179 238.862 21.4816 238.363 21.689C237.868 21.8963 237.28 22 236.598 22H233.266V12.7197ZM234.789 16.5474H236.249C236.939 16.5474 237.417 16.4352 237.684 16.2109C237.95 15.9867 238.084 15.6587 238.084 15.2271C238.084 14.7869 237.925 14.4696 237.607 14.2749C237.294 14.0802 236.795 13.9829 236.109 13.9829H234.789V16.5474ZM234.789 17.7788V20.7241H236.395C237.106 20.7241 237.605 20.5866 237.893 20.3115C238.181 20.0365 238.325 19.6641 238.325 19.1943C238.325 18.9066 238.259 18.6569 238.128 18.4453C238.001 18.2337 237.792 18.0708 237.5 17.9565C237.208 17.8381 236.814 17.7788 236.319 17.7788H234.789ZM247.452 19.4736C247.452 20.0238 247.317 20.4977 247.046 20.8955C246.78 21.2933 246.394 21.598 245.891 21.8096C245.392 22.0212 244.795 22.127 244.101 22.127C243.762 22.127 243.439 22.1079 243.13 22.0698C242.821 22.0317 242.529 21.9767 242.254 21.9048C241.983 21.8286 241.735 21.7376 241.511 21.6318V20.1973C241.888 20.3623 242.309 20.5125 242.774 20.6479C243.24 20.7791 243.714 20.8447 244.196 20.8447C244.59 20.8447 244.915 20.7939 245.174 20.6924C245.436 20.5866 245.631 20.4385 245.758 20.248C245.885 20.0534 245.948 19.827 245.948 19.5688C245.948 19.2938 245.874 19.061 245.726 18.8706C245.578 18.6802 245.353 18.5067 245.053 18.3501C244.757 18.1893 244.384 18.0179 243.936 17.8359C243.631 17.7132 243.339 17.5736 243.06 17.417C242.785 17.2604 242.539 17.0763 242.324 16.8647C242.108 16.6532 241.936 16.4035 241.809 16.1157C241.687 15.8237 241.625 15.481 241.625 15.0874C241.625 14.5627 241.75 14.1141 242 13.7417C242.254 13.3693 242.609 13.0837 243.066 12.8848C243.527 12.6859 244.065 12.5864 244.678 12.5864C245.165 12.5864 245.622 12.6372 246.05 12.7388C246.481 12.8403 246.904 12.9842 247.319 13.1704L246.837 14.3955C246.456 14.2389 246.086 14.1141 245.726 14.021C245.37 13.9279 245.006 13.8813 244.634 13.8813C244.312 13.8813 244.039 13.93 243.815 14.0273C243.591 14.1247 243.42 14.2622 243.301 14.4399C243.187 14.6134 243.13 14.8208 243.13 15.062C243.13 15.3328 243.195 15.5614 243.326 15.7476C243.462 15.9295 243.669 16.0967 243.949 16.249C244.232 16.4014 244.596 16.5706 245.04 16.7568C245.552 16.9684 245.986 17.1906 246.342 17.4233C246.701 17.6561 246.976 17.9354 247.167 18.2612C247.357 18.5828 247.452 18.987 247.452 19.4736Z" fill="white"/>
<defs>
<clipPath id="clip0_6_1299">
<rect width="20" height="20" fill="white" transform="translate(7 7)"/>
</clipPath>
</defs>
</svg>
