<svg width="269" height="60" viewBox="0 0 269 60" fill="none" xmlns="http://www.w3.org/2000/svg">
<rect width="269" height="60" fill="#F5F5F5"/>
<rect x="1" y="1" width="267" height="58" rx="7" fill="#0D1117" stroke="#161B22" stroke-width="2"/>
<path d="M246.5 37.2253C246.658 37.2253 246.816 37.1669 246.941 37.0419L252.375 31.6086C253.258 30.7253 253.258 29.2753 252.375 28.3919L246.941 22.9586C246.7 22.7169 246.3 22.7169 246.058 22.9586C245.816 23.2003 245.816 23.6003 246.058 23.8419L251.491 29.2753C251.891 29.6753 251.891 30.3253 251.491 30.7253L246.058 36.1586C245.816 36.4003 245.816 36.8003 246.058 37.0419C246.183 37.1586 246.341 37.2253 246.5 37.2253Z" fill="#747775"/>
<path d="M0 8C0 3.58172 3.58172 0 8 0H60V60H8C3.58172 60 0 56.4183 0 52V8Z" fill="#FF7A2F"/>
<path d="M45.409 32.0918C44.9317 32.0918 44.6136 32.41 44.6136 32.8872V43.2282C44.6136 43.7054 44.2953 44.0236 43.8181 44.0236H15.1817C14.7044 44.0236 14.3863 43.7054 14.3863 43.2282V32.8872C14.3863 32.4099 14.0681 32.0918 13.5908 32.0918C13.1136 32.0918 12.7954 32.41 12.7954 32.8872V43.2282C12.7954 44.5804 13.8295 45.6145 15.1818 45.6145H43.8181C45.1704 45.6145 46.2045 44.5804 46.2045 43.2282V32.8872C46.2045 32.4099 45.8863 32.0918 45.409 32.0918Z" fill="white"/>
<path d="M44.6136 20.9551H14.3864C13.0341 20.9551 12 21.9892 12 23.3414V28.4324C12 29.5459 12.7954 30.5005 13.8296 30.7392L26.3182 33.5232V36.0687C26.3182 36.5459 26.6364 36.8641 27.1136 36.8641H31.8864C32.3636 36.8641 32.6818 36.5459 32.6818 36.0687V33.5232L45.1704 30.7392C46.2046 30.5005 47 29.5459 47 28.4323V23.3414C47 21.9892 45.9659 20.9551 44.6136 20.9551ZM31.0909 35.2732H27.9091V32.0914H31.0909V35.2732ZM45.4091 28.4323C45.4091 28.83 45.1704 29.1482 44.7727 29.2277L32.6818 31.9323V31.2959C32.6818 30.8187 32.3636 30.5005 31.8864 30.5005H27.1136C26.6364 30.5005 26.3182 30.8187 26.3182 31.2959V31.9323L14.2273 29.2278C13.8296 29.1482 13.5909 28.8301 13.5909 28.4324V23.3414C13.5909 22.8642 13.9091 22.546 14.3864 22.546H44.6136C45.0909 22.546 45.4091 22.8642 45.4091 23.3414V28.4323Z" fill="white"/>
<path d="M33.4774 15.3867H25.5228C24.1705 15.3867 23.1365 16.4208 23.1365 17.7731V18.5685C23.1365 19.0458 23.4547 19.3639 23.9319 19.3639C24.4091 19.3639 24.7273 19.0457 24.7273 18.5685V17.7731C24.7273 17.2958 25.0455 16.9776 25.5228 16.9776H33.4773C33.9546 16.9776 34.2728 17.2959 34.2728 17.7731V18.5685C34.2728 19.0458 34.591 19.3639 35.0682 19.3639C35.5455 19.3639 35.8636 19.0457 35.8636 18.5685V17.7731C35.8638 16.4208 34.8297 15.3867 33.4774 15.3867Z" fill="white"/>
<path d="M80.1172 23.7227H81.9043L76.7578 38H75.1172L70 23.7227H71.7578L75.0391 32.9609C75.4167 34.0221 75.7161 35.054 75.9375 36.0566C76.1719 35.002 76.4779 33.9505 76.8555 32.9023L80.1172 23.7227ZM85.2539 38H83.6328V27.2969H85.2539V38ZM83.4961 24.3965C83.4961 24.0254 83.5872 23.7552 83.7695 23.5859C83.9518 23.4102 84.1797 23.3223 84.4531 23.3223C84.7135 23.3223 84.9382 23.4102 85.127 23.5859C85.3158 23.7617 85.4102 24.0319 85.4102 24.3965C85.4102 24.7611 85.3158 25.0345 85.127 25.2168C84.9382 25.3926 84.7135 25.4805 84.4531 25.4805C84.1797 25.4805 83.9518 25.3926 83.7695 25.2168C83.5872 25.0345 83.4961 24.7611 83.4961 24.3965ZM93.2129 38.1953C91.6309 38.1953 90.3809 37.7135 89.4629 36.75C88.5514 35.7865 88.0957 34.4486 88.0957 32.7363C88.0957 31.0111 88.5189 29.6406 89.3652 28.625C90.2181 27.6094 91.3607 27.1016 92.793 27.1016C94.1341 27.1016 95.1953 27.5443 95.9766 28.4297C96.7578 29.3086 97.1484 30.4707 97.1484 31.916V32.9414H89.7754C89.8079 34.1979 90.1237 35.1517 90.7227 35.8027C91.3281 36.4538 92.1777 36.7793 93.2715 36.7793C94.4238 36.7793 95.5632 36.5384 96.6895 36.0566V37.502C96.1165 37.7493 95.5729 37.9251 95.0586 38.0293C94.5508 38.14 93.9355 38.1953 93.2129 38.1953ZM92.7734 28.459C91.9141 28.459 91.2272 28.7389 90.7129 29.2988C90.2051 29.8587 89.9056 30.6335 89.8145 31.623H95.4102C95.4102 30.6009 95.1823 29.8197 94.7266 29.2793C94.2708 28.7324 93.6198 28.459 92.7734 28.459ZM108.662 38L106.699 31.7207C106.576 31.3366 106.344 30.4642 106.006 29.1035H105.928C105.667 30.2428 105.439 31.1217 105.244 31.7402L103.223 38H101.348L98.4277 27.2969H100.127C100.817 29.9857 101.341 32.0332 101.699 33.4395C102.064 34.8457 102.272 35.793 102.324 36.2812H102.402C102.474 35.9102 102.588 35.4316 102.744 34.8457C102.907 34.2533 103.047 33.7845 103.164 33.4395L105.127 27.2969H106.885L108.799 33.4395C109.163 34.5592 109.411 35.5 109.541 36.2617H109.619C109.645 36.0273 109.714 35.666 109.824 35.1777C109.941 34.6895 110.622 32.0625 111.865 27.2969H113.545L110.586 38H108.662ZM129.98 27.8828C129.98 29.3281 129.486 30.4414 128.496 31.2227C127.513 31.9974 126.104 32.3848 124.268 32.3848H122.588V38H120.928V23.7227H124.629C128.197 23.7227 129.98 25.1094 129.98 27.8828ZM122.588 30.959H124.082C125.553 30.959 126.618 30.7214 127.275 30.2461C127.933 29.7708 128.262 29.0091 128.262 27.9609C128.262 27.0169 127.952 26.3138 127.334 25.8516C126.715 25.3893 125.752 25.1582 124.443 25.1582H122.588V30.959ZM141.973 32.6387C141.973 34.3835 141.533 35.7474 140.654 36.7305C139.775 37.707 138.561 38.1953 137.012 38.1953C136.055 38.1953 135.205 37.9707 134.463 37.5215C133.721 37.0723 133.148 36.4277 132.744 35.5879C132.34 34.748 132.139 33.765 132.139 32.6387C132.139 30.8939 132.575 29.5365 133.447 28.5664C134.32 27.5898 135.531 27.1016 137.08 27.1016C138.577 27.1016 139.766 27.5996 140.645 28.5957C141.53 29.5918 141.973 30.9395 141.973 32.6387ZM133.818 32.6387C133.818 34.0059 134.092 35.0475 134.639 35.7637C135.186 36.4798 135.99 36.8379 137.051 36.8379C138.112 36.8379 138.916 36.4831 139.463 35.7734C140.016 35.0573 140.293 34.0124 140.293 32.6387C140.293 31.278 140.016 30.2461 139.463 29.543C138.916 28.8333 138.105 28.4785 137.031 28.4785C135.97 28.4785 135.169 28.8268 134.629 29.5234C134.089 30.2201 133.818 31.2585 133.818 32.6387ZM149.707 27.1016C150.182 27.1016 150.609 27.1406 150.986 27.2188L150.762 28.7227C150.319 28.625 149.928 28.5762 149.59 28.5762C148.724 28.5762 147.982 28.9277 147.363 29.6309C146.751 30.334 146.445 31.2096 146.445 32.2578V38H144.824V27.2969H146.162L146.348 29.2793H146.426C146.823 28.5827 147.301 28.0456 147.861 27.668C148.421 27.2904 149.036 27.1016 149.707 27.1016ZM156.445 36.8574C156.732 36.8574 157.008 36.8379 157.275 36.7988C157.542 36.7533 157.754 36.7077 157.91 36.6621V37.9023C157.734 37.987 157.474 38.0553 157.129 38.1074C156.79 38.166 156.484 38.1953 156.211 38.1953C154.141 38.1953 153.105 37.1048 153.105 34.9238V28.5566H151.572V27.7754L153.105 27.1016L153.789 24.8164H154.727V27.2969H157.832V28.5566H154.727V34.8555C154.727 35.5 154.88 35.9948 155.186 36.3398C155.492 36.6849 155.911 36.8574 156.445 36.8574ZM164.883 28.5566H162.158V38H160.537V28.5566H158.623V27.8242L160.537 27.2383V26.6426C160.537 24.0124 161.686 22.6973 163.984 22.6973C164.551 22.6973 165.215 22.8112 165.977 23.0391L165.557 24.3379C164.932 24.1361 164.398 24.0352 163.955 24.0352C163.343 24.0352 162.891 24.2402 162.598 24.6504C162.305 25.054 162.158 25.7051 162.158 26.6035V27.2969H164.883V28.5566ZM176.074 32.6387C176.074 34.3835 175.635 35.7474 174.756 36.7305C173.877 37.707 172.663 38.1953 171.113 38.1953C170.156 38.1953 169.307 37.9707 168.564 37.5215C167.822 37.0723 167.249 36.4277 166.846 35.5879C166.442 34.748 166.24 33.765 166.24 32.6387C166.24 30.8939 166.676 29.5365 167.549 28.5664C168.421 27.5898 169.632 27.1016 171.182 27.1016C172.679 27.1016 173.867 27.5996 174.746 28.5957C175.632 29.5918 176.074 30.9395 176.074 32.6387ZM167.92 32.6387C167.92 34.0059 168.193 35.0475 168.74 35.7637C169.287 36.4798 170.091 36.8379 171.152 36.8379C172.214 36.8379 173.018 36.4831 173.564 35.7734C174.118 35.0573 174.395 34.0124 174.395 32.6387C174.395 31.278 174.118 30.2461 173.564 29.543C173.018 28.8333 172.207 28.4785 171.133 28.4785C170.072 28.4785 169.271 28.8268 168.73 29.5234C168.19 30.2201 167.92 31.2585 167.92 32.6387ZM180.547 38H178.926V22.8047H180.547V38ZM185.605 38H183.984V27.2969H185.605V38ZM183.848 24.3965C183.848 24.0254 183.939 23.7552 184.121 23.5859C184.303 23.4102 184.531 23.3223 184.805 23.3223C185.065 23.3223 185.29 23.4102 185.479 23.5859C185.667 23.7617 185.762 24.0319 185.762 24.3965C185.762 24.7611 185.667 25.0345 185.479 25.2168C185.29 25.3926 185.065 25.4805 184.805 25.4805C184.531 25.4805 184.303 25.3926 184.121 25.2168C183.939 25.0345 183.848 24.7611 183.848 24.3965ZM198.281 32.6387C198.281 34.3835 197.842 35.7474 196.963 36.7305C196.084 37.707 194.87 38.1953 193.32 38.1953C192.363 38.1953 191.514 37.9707 190.771 37.5215C190.029 37.0723 189.456 36.4277 189.053 35.5879C188.649 34.748 188.447 33.765 188.447 32.6387C188.447 30.8939 188.883 29.5365 189.756 28.5664C190.628 27.5898 191.839 27.1016 193.389 27.1016C194.886 27.1016 196.074 27.5996 196.953 28.5957C197.839 29.5918 198.281 30.9395 198.281 32.6387ZM190.127 32.6387C190.127 34.0059 190.4 35.0475 190.947 35.7637C191.494 36.4798 192.298 36.8379 193.359 36.8379C194.421 36.8379 195.225 36.4831 195.771 35.7734C196.325 35.0573 196.602 34.0124 196.602 32.6387C196.602 31.278 196.325 30.2461 195.771 29.543C195.225 28.8333 194.414 28.4785 193.34 28.4785C192.279 28.4785 191.478 28.8268 190.938 29.5234C190.397 30.2201 190.127 31.2585 190.127 32.6387Z" fill="white"/>
</svg>
